<mxfile host="Electron" agent="Mozilla/5.0 (Windows NT 10.0; Win64; x64) AppleWebKit/537.36 (KHTML, like Gecko) draw.io/26.0.9 Chrome/128.0.6613.186 Electron/32.2.5 Safari/537.36" version="26.0.9">
  <diagram name="Página-1" id="T989IK6_hZN-qAHNerHT">
    <mxGraphModel dx="1927" dy="744" grid="1" gridSize="10" guides="1" tooltips="1" connect="1" arrows="1" fold="1" page="1" pageScale="1" pageWidth="827" pageHeight="1169" math="0" shadow="0">
      <root>
        <mxCell id="0" />
        <mxCell id="1" parent="0" />
        <mxCell id="fnF92xH3kapm6rzCvTt0-2" value="" style="ellipse;whiteSpace=wrap;html=1;aspect=fixed;fillColor=#e51400;fontColor=#ffffff;strokeColor=#B20000;" parent="1" vertex="1">
          <mxGeometry x="120" y="40" width="80" height="80" as="geometry" />
        </mxCell>
        <mxCell id="yFlAfzHmcIyTp4q8nbgo-1" value="" style="endArrow=classic;html=1;rounded=0;" edge="1" parent="1">
          <mxGeometry width="50" height="50" relative="1" as="geometry">
            <mxPoint x="160" y="130" as="sourcePoint" />
            <mxPoint x="160" y="190" as="targetPoint" />
          </mxGeometry>
        </mxCell>
        <mxCell id="yFlAfzHmcIyTp4q8nbgo-2" value="usuario informa a idade" style="shape=parallelogram;perimeter=parallelogramPerimeter;whiteSpace=wrap;html=1;fixedSize=1;fontSize=16;fillColor=#fff2cc;strokeColor=#d6b656;" vertex="1" parent="1">
          <mxGeometry x="80" y="200" width="160" height="80" as="geometry" />
        </mxCell>
        <mxCell id="yFlAfzHmcIyTp4q8nbgo-3" value="" style="endArrow=classic;html=1;rounded=0;" edge="1" parent="1">
          <mxGeometry width="50" height="50" relative="1" as="geometry">
            <mxPoint x="160" y="290" as="sourcePoint" />
            <mxPoint x="160" y="350" as="targetPoint" />
          </mxGeometry>
        </mxCell>
        <mxCell id="yFlAfzHmcIyTp4q8nbgo-4" value="idade = X" style="rounded=0;whiteSpace=wrap;html=1;fontSize=17;fillColor=#dae8fc;strokeColor=#6c8ebf;" vertex="1" parent="1">
          <mxGeometry x="80" y="360" width="160" height="80" as="geometry" />
        </mxCell>
        <mxCell id="yFlAfzHmcIyTp4q8nbgo-6" value="X maior ou menor ou = a Y?" style="rhombus;whiteSpace=wrap;html=1;fontSize=11;fillColor=#d5e8d4;strokeColor=#82b366;" vertex="1" parent="1">
          <mxGeometry x="80" y="840" width="160" height="80" as="geometry" />
        </mxCell>
        <mxCell id="yFlAfzHmcIyTp4q8nbgo-7" value="X maior ou menor ou = a Y" style="whiteSpace=wrap;html=1;fillColor=#dae8fc;strokeColor=#6c8ebf;" vertex="1" parent="1">
          <mxGeometry x="80" y="680" width="160" height="80" as="geometry" />
        </mxCell>
        <mxCell id="yFlAfzHmcIyTp4q8nbgo-8" value="Y=18" style="whiteSpace=wrap;html=1;fontSize=20;fillColor=#dae8fc;strokeColor=#6c8ebf;" vertex="1" parent="1">
          <mxGeometry x="80" y="520" width="160" height="80" as="geometry" />
        </mxCell>
        <mxCell id="yFlAfzHmcIyTp4q8nbgo-11" value="" style="endArrow=classic;html=1;rounded=0;" edge="1" parent="1">
          <mxGeometry width="50" height="50" relative="1" as="geometry">
            <mxPoint x="160" y="450" as="sourcePoint" />
            <mxPoint x="160" y="510" as="targetPoint" />
          </mxGeometry>
        </mxCell>
        <mxCell id="yFlAfzHmcIyTp4q8nbgo-12" value="" style="endArrow=classic;html=1;rounded=0;" edge="1" parent="1">
          <mxGeometry width="50" height="50" relative="1" as="geometry">
            <mxPoint x="159.33" y="770" as="sourcePoint" />
            <mxPoint x="159" y="830" as="targetPoint" />
          </mxGeometry>
        </mxCell>
        <mxCell id="yFlAfzHmcIyTp4q8nbgo-13" value="" style="endArrow=classic;html=1;rounded=0;" edge="1" parent="1">
          <mxGeometry width="50" height="50" relative="1" as="geometry">
            <mxPoint x="160" y="610" as="sourcePoint" />
            <mxPoint x="160" y="670" as="targetPoint" />
          </mxGeometry>
        </mxCell>
        <mxCell id="yFlAfzHmcIyTp4q8nbgo-15" value="" style="endArrow=none;html=1;rounded=0;" edge="1" parent="1">
          <mxGeometry width="50" height="50" relative="1" as="geometry">
            <mxPoint x="240" y="880" as="sourcePoint" />
            <mxPoint x="320" y="880" as="targetPoint" />
          </mxGeometry>
        </mxCell>
        <mxCell id="yFlAfzHmcIyTp4q8nbgo-18" value="X=Y" style="edgeLabel;html=1;align=center;verticalAlign=middle;resizable=0;points=[];fontSize=7;" vertex="1" connectable="0" parent="yFlAfzHmcIyTp4q8nbgo-15">
          <mxGeometry x="-0.2583" relative="1" as="geometry">
            <mxPoint x="11" y="-10" as="offset" />
          </mxGeometry>
        </mxCell>
        <mxCell id="yFlAfzHmcIyTp4q8nbgo-17" value="" style="endArrow=none;html=1;rounded=0;" edge="1" parent="1">
          <mxGeometry width="50" height="50" relative="1" as="geometry">
            <mxPoint x="160" y="1000" as="sourcePoint" />
            <mxPoint x="160" y="920" as="targetPoint" />
          </mxGeometry>
        </mxCell>
        <mxCell id="yFlAfzHmcIyTp4q8nbgo-20" value="X maior que Y" style="edgeLabel;html=1;align=center;verticalAlign=middle;resizable=0;points=[];fontSize=7;textDirection=vertical-lr;" vertex="1" connectable="0" parent="yFlAfzHmcIyTp4q8nbgo-17">
          <mxGeometry x="-0.0083" y="1" relative="1" as="geometry">
            <mxPoint x="11" as="offset" />
          </mxGeometry>
        </mxCell>
        <mxCell id="yFlAfzHmcIyTp4q8nbgo-21" value="" style="endArrow=none;html=1;rounded=0;" edge="1" parent="1">
          <mxGeometry width="50" height="50" relative="1" as="geometry">
            <mxPoint x="40" y="880" as="sourcePoint" />
            <mxPoint x="80" y="880" as="targetPoint" />
          </mxGeometry>
        </mxCell>
        <mxCell id="yFlAfzHmcIyTp4q8nbgo-22" value="X menor que Y" style="edgeLabel;html=1;align=center;verticalAlign=middle;resizable=0;points=[];fontSize=5;" vertex="1" connectable="0" parent="yFlAfzHmcIyTp4q8nbgo-21">
          <mxGeometry x="0.0028" y="1" relative="1" as="geometry">
            <mxPoint x="-10" y="-9" as="offset" />
          </mxGeometry>
        </mxCell>
        <mxCell id="yFlAfzHmcIyTp4q8nbgo-25" value="idade do usuario é maior ou igual a 18" style="whiteSpace=wrap;html=1;fillColor=#dae8fc;strokeColor=#6c8ebf;" vertex="1" parent="1">
          <mxGeometry x="240" y="960" width="160" height="80" as="geometry" />
        </mxCell>
        <mxCell id="yFlAfzHmcIyTp4q8nbgo-26" value="" style="endArrow=classic;html=1;rounded=0;" edge="1" parent="1">
          <mxGeometry width="50" height="50" relative="1" as="geometry">
            <mxPoint x="320" y="880" as="sourcePoint" />
            <mxPoint x="320" y="950" as="targetPoint" />
          </mxGeometry>
        </mxCell>
        <mxCell id="yFlAfzHmcIyTp4q8nbgo-27" value="" style="endArrow=classic;html=1;rounded=0;" edge="1" parent="1">
          <mxGeometry width="50" height="50" relative="1" as="geometry">
            <mxPoint x="160" y="1000" as="sourcePoint" />
            <mxPoint x="230" y="1000" as="targetPoint" />
          </mxGeometry>
        </mxCell>
        <mxCell id="yFlAfzHmcIyTp4q8nbgo-28" value="idade do usuario é menor que 18" style="rounded=0;whiteSpace=wrap;html=1;fillColor=#dae8fc;strokeColor=#6c8ebf;" vertex="1" parent="1">
          <mxGeometry x="-160" y="840" width="160" height="80" as="geometry" />
        </mxCell>
        <mxCell id="yFlAfzHmcIyTp4q8nbgo-29" value="" style="endArrow=classic;html=1;rounded=0;" edge="1" parent="1">
          <mxGeometry width="50" height="50" relative="1" as="geometry">
            <mxPoint x="40" y="880" as="sourcePoint" />
            <mxPoint x="10" y="880" as="targetPoint" />
          </mxGeometry>
        </mxCell>
        <mxCell id="yFlAfzHmcIyTp4q8nbgo-30" value="" style="endArrow=classic;html=1;rounded=0;" edge="1" parent="1">
          <mxGeometry width="50" height="50" relative="1" as="geometry">
            <mxPoint x="-80" y="930" as="sourcePoint" />
            <mxPoint x="-80" y="1110" as="targetPoint" />
          </mxGeometry>
        </mxCell>
        <mxCell id="yFlAfzHmcIyTp4q8nbgo-31" value="" style="endArrow=classic;html=1;rounded=0;" edge="1" parent="1">
          <mxGeometry width="50" height="50" relative="1" as="geometry">
            <mxPoint x="320" y="1050" as="sourcePoint" />
            <mxPoint x="320" y="1110" as="targetPoint" />
          </mxGeometry>
        </mxCell>
        <mxCell id="yFlAfzHmcIyTp4q8nbgo-32" value="usuario é menor de idade" style="whiteSpace=wrap;html=1;fillColor=#dae8fc;strokeColor=#6c8ebf;" vertex="1" parent="1">
          <mxGeometry x="-160" y="1120" width="160" height="80" as="geometry" />
        </mxCell>
        <mxCell id="yFlAfzHmcIyTp4q8nbgo-33" value="usuario é maior de idade" style="whiteSpace=wrap;html=1;fillColor=#dae8fc;strokeColor=#6c8ebf;" vertex="1" parent="1">
          <mxGeometry x="240" y="1120" width="160" height="80" as="geometry" />
        </mxCell>
        <mxCell id="yFlAfzHmcIyTp4q8nbgo-34" value="imprimir resultado" style="shape=document;whiteSpace=wrap;html=1;boundedLbl=1;fillColor=#ffe6cc;strokeColor=#d79b00;" vertex="1" parent="1">
          <mxGeometry x="40" y="1280" width="160" height="100" as="geometry" />
        </mxCell>
        <mxCell id="yFlAfzHmcIyTp4q8nbgo-36" value="" style="endArrow=none;html=1;rounded=0;" edge="1" parent="1">
          <mxGeometry width="50" height="50" relative="1" as="geometry">
            <mxPoint x="319.38" y="1320" as="sourcePoint" />
            <mxPoint x="319.38" y="1200" as="targetPoint" />
          </mxGeometry>
        </mxCell>
        <mxCell id="yFlAfzHmcIyTp4q8nbgo-38" value="" style="endArrow=classic;html=1;rounded=0;" edge="1" parent="1">
          <mxGeometry width="50" height="50" relative="1" as="geometry">
            <mxPoint x="320" y="1320" as="sourcePoint" />
            <mxPoint x="210" y="1320" as="targetPoint" />
          </mxGeometry>
        </mxCell>
        <mxCell id="yFlAfzHmcIyTp4q8nbgo-39" value="" style="endArrow=classic;html=1;rounded=0;" edge="1" parent="1">
          <mxGeometry width="50" height="50" relative="1" as="geometry">
            <mxPoint x="-80" y="1320" as="sourcePoint" />
            <mxPoint x="30" y="1320" as="targetPoint" />
          </mxGeometry>
        </mxCell>
        <mxCell id="yFlAfzHmcIyTp4q8nbgo-40" value="" style="endArrow=none;html=1;rounded=0;" edge="1" parent="1">
          <mxGeometry width="50" height="50" relative="1" as="geometry">
            <mxPoint x="-80" y="1320" as="sourcePoint" />
            <mxPoint x="-80" y="1200" as="targetPoint" />
          </mxGeometry>
        </mxCell>
        <mxCell id="yFlAfzHmcIyTp4q8nbgo-41" value="" style="endArrow=classic;html=1;rounded=0;" edge="1" parent="1">
          <mxGeometry width="50" height="50" relative="1" as="geometry">
            <mxPoint x="118.75" y="1370" as="sourcePoint" />
            <mxPoint x="118.75" y="1430" as="targetPoint" />
          </mxGeometry>
        </mxCell>
        <mxCell id="yFlAfzHmcIyTp4q8nbgo-42" value="" style="ellipse;whiteSpace=wrap;html=1;aspect=fixed;fillColor=#e51400;fontColor=#ffffff;strokeColor=#B20000;" vertex="1" parent="1">
          <mxGeometry x="80" y="1440" width="80" height="80" as="geometry" />
        </mxCell>
      </root>
    </mxGraphModel>
  </diagram>
</mxfile>
